# xmcd CD database file
#
# Track frame offsets:
#	150
#	15705
#	32140
#	50257
#	64430
#	80857
#	108090
#	123860
#	141390
#	160090
#	177655
#	202140
#
# Disc length: 2912 seconds
#
# Revision: 0
# Processed by: cddbd v1.4PL0 Copyright (c) Steve Scherf et al.
# Submitted via: CDex 1.50beta10
#
DISCID=ae0b5e0c
DTITLE=Tommy Ridgely - She Turns Me On
DYEAR=1992
DGENRE=Blues
TTITLE0=For You, My Love
TTITLE1=Sick And Tired
TTITLE2=Should I Ever Love Again
TTITLE3=Double-Eyed Whammy
TTITLE4=I Want Some Money
TTITLE5=Stacked Deck
TTITLE6=Bad Luck
TTITLE7=Jam Up
TTITLE8=Ooh Lordy My Baby
TTITLE9=She Turns Me On
TTITLE10=Stoop Down
TTITLE11=I've Heard That Story Before
EXTD=YEAR: 1992
EXTT0=
EXTT1=
EXTT2=
EXTT3=
EXTT4=
EXTT5=
EXTT6=
EXTT7=
EXTT8=
EXTT9=
EXTT10=
EXTT11=
PLAYORDER=
